<?xml version="1.0" standalone="no"?>
<!DOCTYPE svg PUBLIC "-//W3C//DTD SVG 20010904//EN"
 "http://www.w3.org/TR/2001/REC-SVG-20010904/DTD/svg10.dtd">
<svg version="1.0" xmlns="http://www.w3.org/2000/svg"
 width="225.000000pt" height="225.000000pt" viewBox="0 0 225.000000 225.000000"
 preserveAspectRatio="xMidYMid meet">

<g transform="translate(0.000000,225.000000) scale(0.100000,-0.100000)"
fill="#000000" stroke="none">
<path d="M930 2124 c-208 -45 -362 -127 -512 -272 -205 -198 -308 -445 -308
-735 1 -586 488 -1045 1074 -1014 518 28 935 445 963 963 27 502 -311 945
-805 1054 -105 24 -313 25 -412 4z m78 -166 c-3 -48 -5 -52 -33 -60 -115 -34
-178 -58 -241 -94 l-73 -41 -36 37 -36 37 35 27 c54 41 192 103 276 125 113
30 112 30 108 -31z m346 32 c94 -25 189 -67 264 -116 l54 -36 -38 -39 -37 -38
-41 25 c-64 40 -144 74 -228 97 l-78 22 0 53 c0 61 -3 60 104 32z m-908 -474
c-36 -63 -60 -126 -94 -241 -8 -28 -12 -30 -61 -33 l-53 -3 7 43 c18 108 85
270 143 346 l25 33 37 -36 37 -36 -41 -73z m1470 34 c39 -71 90 -216 96 -270
l3 -35 -52 -3 c-50 -3 -53 -2 -58 25 -15 71 -51 165 -90 239 l-43 81 36 37 37
36 18 -22 c9 -13 33 -52 53 -88z m-1566 -565 c0 -37 63 -206 99 -265 l40 -65
-37 -38 -37 -38 -23 28 c-54 66 -152 310 -152 380 0 9 16 13 55 13 42 0 55 -4
55 -15z m1664 -12 c-25 -111 -41 -159 -79 -238 -23 -49 -54 -104 -67 -122
l-25 -32 -37 38 -37 38 41 68 c36 62 78 172 94 248 6 25 10 27 61 27 55 0 55
0 49 -27z m-1124 -601 c36 -12 78 -23 93 -27 27 -5 28 -8 25 -58 l-3 -52 -35
3 c-83 8 -246 74 -343 140 l-38 25 37 38 37 38 81 -44 c44 -24 110 -52 146
-63z m743 70 l38 -39 -39 -25 c-99 -66 -210 -110 -354 -142 -28 -6 -28 -6 -28
49 0 52 2 55 28 61 76 16 173 53 236 90 39 23 73 42 76 43 3 1 23 -16 43 -37z"/>
</g>
</svg>
